# xmcd CD database file
#
# Track frame offsets:
#	150
#	3151
#	35391
#	42560
#	81451
#
# Disc length: 1190 seconds
#
# Revision: 0
# Processed by: cddbd v1.5.1PL0 Copyright (c) Steve Scherf et al.
# Submitted via: CDex 1.60beta1
#
DISCID=3504a405
DTITLE=Cyber Logic Pro. - CyberCore
DYEAR=1900
DGENRE=ハード トランス/アシッド
TTITLE0=Intro
TTITLE1=CyberCore
TTITLE2=plan_A
TTITLE3=Discharge
TTITLE4=plan_C
EXTD=
EXTT0=
EXTT1=
EXTT2=
EXTT3=
EXTT4=
PLAYORDER=
